<svg xmlns="http://www.w3.org/2000/svg" viewBox="0 0 960 420" role="img" aria-labelledby="title desc">
  <title id="title">2D voxel engine world preview</title>
  <desc id="desc">A pixel-art style preview of chunks containing air, sand, water, dirt, and stone.</desc>
  <rect width="960" height="420" fill="#15171d"/>
  <rect x="0" y="0" width="960" height="220" fill="#1c2430"/>
  <g opacity="0.35">
    <path d="M0 74h960M0 148h960M0 222h960M0 296h960M0 370h960M96 0v420M192 0v420M288 0v420M384 0v420M480 0v420M576 0v420M672 0v420M768 0v420M864 0v420" stroke="#3e4654" stroke-width="1"/>
  </g>
  <g shape-rendering="crispEdges">
    <rect x="0" y="244" width="960" height="176" fill="#5c5f63"/>
    <rect x="0" y="214" width="960" height="48" fill="#6f4e30"/>
    <rect x="0" y="190" width="128" height="32" fill="#6f4e30"/>
    <rect x="128" y="176" width="128" height="48" fill="#6f4e30"/>
    <rect x="256" y="188" width="128" height="36" fill="#6f4e30"/>
    <rect x="384" y="168" width="128" height="56" fill="#6f4e30"/>
    <rect x="512" y="186" width="128" height="38" fill="#6f4e30"/>
    <rect x="640" y="170" width="128" height="54" fill="#6f4e30"/>
    <rect x="768" y="198" width="192" height="26" fill="#6f4e30"/>
    <rect x="160" y="96" width="24" height="24" fill="#cdb270"/>
    <rect x="184" y="120" width="24" height="24" fill="#cdb270"/>
    <rect x="208" y="144" width="24" height="24" fill="#cdb270"/>
    <rect x="232" y="168" width="24" height="24" fill="#cdb270"/>
    <rect x="640" y="104" width="24" height="24" fill="#cdb270"/>
    <rect x="664" y="128" width="24" height="24" fill="#cdb270"/>
    <rect x="688" y="152" width="24" height="24" fill="#cdb270"/>
    <rect x="456" y="206" width="160" height="32" fill="#2f6fc5"/>
    <rect x="480" y="238" width="112" height="24" fill="#2f6fc5"/>
    <rect x="504" y="262" width="64" height="24" fill="#2f6fc5"/>
    <rect x="64" y="286" width="128" height="24" fill="#4f5257"/>
    <rect x="712" y="276" width="96" height="24" fill="#4f5257"/>
  </g>
  <g fill="none" stroke="#edf2f7" stroke-width="3" opacity="0.85">
    <rect x="0" y="164" width="192" height="192"/>
    <rect x="192" y="164" width="192" height="192"/>
    <rect x="384" y="164" width="192" height="192"/>
    <rect x="576" y="164" width="192" height="192"/>
    <rect x="768" y="164" width="192" height="192"/>
  </g>
  <g font-family="ui-monospace, SFMono-Regular, Consolas, monospace" font-size="18" fill="#edf2f7">
    <text x="28" y="48">Chunked 2D voxel world</text>
    <text x="28" y="390" fill="#aab4c3">64x64 cells per chunk - sand + water simulation - dirty render/save flags</text>
  </g>
</svg>
